<svg xmlns="http://www.w3.org/2000/svg" xmlns:xlink="http://www.w3.org/1999/xlink" width="1910pt" height="1047pt" viewBox="0.00 0.00 1910.18 1047.40">
<g id="graph0" class="graph" transform="scale(1 1) rotate(0) translate(4 1043.4)">
<title>VehicleType</title>
<polygon fill="white" stroke="none" points="-4,4 -4,-1043.4 1906.18,-1043.4 1906.18,4 -4,4"/>
<!-- Bike -->
<g id="node1" class="node">
<title>Bike</title>
<polygon fill="none" stroke="black" points="224.43,-444.5 224.43,-494.1 332.71,-494.1 332.71,-444.5 224.43,-444.5"/>
<text text-anchor="middle" x="278.57" y="-477.5" font-family="Times,serif" font-size="14.00">Bike</text>
<polyline fill="none" stroke="black" points="224.43,-469.3 332.71,-469.3"/>
<text text-anchor="start" x="232.43" y="-452.7" font-family="Times,serif" font-size="14.00">+ Bike(String) : </text>
</g>
<!-- Vehicle -->
<g id="node15" class="node">
<title>Vehicle</title>
<polygon fill="none" stroke="black" points="401.68,-145.5 401.68,-303.1 605.45,-303.1 605.45,-145.5 401.68,-145.5"/>
<text text-anchor="middle" x="503.57" y="-286.5" font-family="Times,serif" font-size="14.00">Vehicle</text>
<polyline fill="none" stroke="black" points="401.68,-278.3 605.45,-278.3"/>
<text text-anchor="start" x="409.68" y="-261.7" font-family="Times,serif" font-size="14.00"># Vehicle(String, VehicleType) : </text>
<polyline fill="none" stroke="black" points="401.68,-253.5 605.45,-253.5"/>
<text text-anchor="start" x="409.68" y="-236.9" font-family="Times,serif" font-size="14.00">- licensePlate : String</text>
<text text-anchor="start" x="409.68" y="-220.1" font-family="Times,serif" font-size="14.00"> - type : VehicleType</text>
<polyline fill="none" stroke="black" points="401.68,-211.9 605.45,-211.9"/>
<text text-anchor="start" x="409.68" y="-195.3" font-family="Times,serif" font-size="14.00">+ toString() : String</text>
<polyline fill="none" stroke="black" points="401.68,-187.1 605.45,-187.1"/>
<text text-anchor="start" x="409.68" y="-170.5" font-family="Times,serif" font-size="14.00">licensePlate : String</text>
<text text-anchor="start" x="409.68" y="-153.7" font-family="Times,serif" font-size="14.00"> type : VehicleType</text>
</g>
<!-- Bike&#45;&gt;Vehicle -->
<g id="edge1" class="edge">
<title>Bike-&gt;Vehicle</title>
<path fill="none" stroke="#000082" d="M278.57,-444C278.57,-381.41 278.57,-224.3 278.57,-224.3 278.57,-224.3 389.76,-224.3 389.76,-224.3"/>
<polygon fill="#000082" stroke="#000082" points="389.76,-227.8 399.76,-224.3 389.76,-220.8 389.76,-227.8"/>
</g>
<!-- Car -->
<g id="node2" class="node">
<title>Car</title>
<polygon fill="none" stroke="black" points="388.54,-444.5 388.54,-494.1 490.59,-494.1 490.59,-444.5 388.54,-444.5"/>
<text text-anchor="middle" x="439.57" y="-477.5" font-family="Times,serif" font-size="14.00">Car</text>
<polyline fill="none" stroke="black" points="388.54,-469.3 490.59,-469.3"/>
<text text-anchor="start" x="396.54" y="-452.7" font-family="Times,serif" font-size="14.00">+ Car(String) : </text>
</g>
<!-- Car&#45;&gt;Vehicle -->
<g id="edge2" class="edge">
<title>Car-&gt;Vehicle</title>
<path fill="none" stroke="#000082" d="M446.14,-444C446.14,-444 446.14,-315.08 446.14,-315.08"/>
<polygon fill="#000082" stroke="#000082" points="449.64,-315.08 446.14,-305.08 442.64,-315.08 449.64,-315.08"/>
</g>
<!-- FeesStrategy -->
<g id="node3" class="node">
<title>FeesStrategy</title>
<polygon fill="none" stroke="black" points="659.85,-719.1 659.85,-785.5 851.28,-785.5 851.28,-719.1 659.85,-719.1"/>
<text text-anchor="middle" x="755.57" y="-768.9" font-family="Times,serif" font-size="14.00">&lt;&lt;interface&gt;&gt;</text>
<text text-anchor="middle" x="755.57" y="-752.1" font-family="Times,serif" font-size="14.00">FeesStrategy</text>
<polyline fill="none" stroke="black" points="659.85,-743.9 851.28,-743.9"/>
<text text-anchor="start" x="667.85" y="-727.3" font-family="Times,serif" font-size="14.00">+ calculateFee(Ticket) : double</text>
</g>
<!-- ParkingFloor -->
<g id="node4" class="node">
<title>ParkingFloor</title>
<polygon fill="none" stroke="black" points="291.13,-665.1 291.13,-839.5 642.01,-839.5 642.01,-665.1 291.13,-665.1"/>
<text text-anchor="middle" x="466.57" y="-822.9" font-family="Times,serif" font-size="14.00">ParkingFloor</text>
<polyline fill="none" stroke="black" points="291.13,-814.7 642.01,-814.7"/>
<text text-anchor="start" x="299.13" y="-798.1" font-family="Times,serif" font-size="14.00">+ ParkingFloor(String, List&lt;ParkingSlot&gt;) : </text>
<polyline fill="none" stroke="black" points="291.13,-789.9 642.01,-789.9"/>
<text text-anchor="start" x="299.13" y="-773.3" font-family="Times,serif" font-size="14.00">- floorNumber : String</text>
<text text-anchor="start" x="299.13" y="-756.5" font-family="Times,serif" font-size="14.00"> - parkingSlots : List&lt;ParkingSlot&gt;</text>
<polyline fill="none" stroke="black" points="291.13,-748.3 642.01,-748.3"/>
<text text-anchor="start" x="299.13" y="-731.7" font-family="Times,serif" font-size="14.00">+ getNextAvailableParkingSlot(VehicleType) : ParkingSlot</text>
<text text-anchor="start" x="299.13" y="-714.9" font-family="Times,serif" font-size="14.00"> + toString() : String</text>
<polyline fill="none" stroke="black" points="291.13,-706.7 642.01,-706.7"/>
<text text-anchor="start" x="299.13" y="-690.1" font-family="Times,serif" font-size="14.00">parkingSlots : List&lt;ParkingSlot&gt;</text>
<text text-anchor="start" x="299.13" y="-673.3" font-family="Times,serif" font-size="14.00"> floorNumber : String</text>
</g>
<!-- ParkingSlot -->
<g id="node8" class="node">
<title>ParkingSlot</title>
<polygon fill="none" stroke="black" points="642.12,-340.1 642.12,-598.5 977.02,-598.5 977.02,-340.1 642.12,-340.1"/>
<text text-anchor="middle" x="809.57" y="-581.9" font-family="Times,serif" font-size="14.00">ParkingSlot</text>
<polyline fill="none" stroke="black" points="642.12,-573.7 977.02,-573.7"/>
<text text-anchor="start" x="650.12" y="-557.1" font-family="Times,serif" font-size="14.00"># ParkingSlot(VehicleType, String) : </text>
<polyline fill="none" stroke="black" points="642.12,-548.9 977.02,-548.9"/>
<text text-anchor="start" x="650.12" y="-532.3" font-family="Times,serif" font-size="14.00">- vehicle : Vehicle</text>
<text text-anchor="start" x="650.12" y="-515.5" font-family="Times,serif" font-size="14.00"> - parkingSlotType : VehicleType</text>
<text text-anchor="start" x="650.12" y="-498.7" font-family="Times,serif" font-size="14.00"> - slotNumber : String</text>
<polyline fill="none" stroke="black" points="642.12,-490.5 977.02,-490.5"/>
<text text-anchor="start" x="650.12" y="-473.9" font-family="Times,serif" font-size="14.00">+ unpark(Vehicle) : void</text>
<text text-anchor="start" x="650.12" y="-457.1" font-family="Times,serif" font-size="14.00"> + compareAndSetOccupied(boolean, boolean) : boolean</text>
<text text-anchor="start" x="650.12" y="-440.3" font-family="Times,serif" font-size="14.00"> + park(Vehicle) : void</text>
<text text-anchor="start" x="650.12" y="-423.5" font-family="Times,serif" font-size="14.00"> + toString() : String</text>
<polyline fill="none" stroke="black" points="642.12,-415.3 977.02,-415.3"/>
<text text-anchor="start" x="650.12" y="-398.7" font-family="Times,serif" font-size="14.00">vehicle : Vehicle</text>
<text text-anchor="start" x="650.12" y="-381.9" font-family="Times,serif" font-size="14.00"> slotNumber : String</text>
<text text-anchor="start" x="650.12" y="-365.1" font-family="Times,serif" font-size="14.00"> occupied : boolean</text>
<text text-anchor="start" x="650.12" y="-348.3" font-family="Times,serif" font-size="14.00"> parkingSlotType : VehicleType</text>
</g>
<!-- ParkingFloor&#45;&gt;ParkingSlot -->
<g id="edge3" class="edge">
<title>ParkingFloor-&gt;ParkingSlot</title>
<path fill="none" stroke="#595959" d="M652.8,-677.2C652.8,-677.2 653.94,-677.2 653.94,-677.2 653.94,-677.2 653.94,-610.12 653.94,-610.12"/>
<polygon fill="#595959" stroke="#595959" points="655.41,-677.2 649.41,-681.2 643.41,-677.2 649.41,-673.2 655.41,-677.2"/>
<polygon fill="#595959" stroke="#595959" points="653.94,-600.12 658.44,-610.12 653.94,-603.9 653.94,-610.12 653.94,-610.12 653.94,-610.12 653.94,-603.9 649.44,-610.12 653.94,-600.12"/>
<text text-anchor="middle" x="618.55" y="-619.9" font-family="Times,serif" font-size="14.00">parkingSlots</text>
<text text-anchor="middle" x="618.55" y="-603.1" font-family="Times,serif" font-size="14.00">*</text>
<text text-anchor="middle" x="646" y="-681.4" font-family="Times,serif" font-size="14.00">1</text>
</g>
<!-- ParkingLot -->
<g id="node5" class="node">
<title>ParkingLot</title>
<polygon fill="none" stroke="black" points="315.88,-906.1 315.88,-1038.9 617.26,-1038.9 617.26,-906.1 315.88,-906.1"/>
<text text-anchor="middle" x="466.57" y="-1022.3" font-family="Times,serif" font-size="14.00">ParkingLot</text>
<polyline fill="none" stroke="black" points="315.88,-1014.1 617.26,-1014.1"/>
<text text-anchor="start" x="323.88" y="-997.5" font-family="Times,serif" font-size="14.00">+ ParkingLot(List&lt;ParkingFloor&gt;, FeesStrategy) : </text>
<polyline fill="none" stroke="black" points="315.88,-989.3 617.26,-989.3"/>
<text text-anchor="start" x="323.88" y="-972.7" font-family="Times,serif" font-size="14.00">+ park(Vehicle) : Ticket</text>
<text text-anchor="start" x="323.88" y="-955.9" font-family="Times,serif" font-size="14.00"> + unpark(Ticket) : double</text>
<text text-anchor="start" x="323.88" y="-939.1" font-family="Times,serif" font-size="14.00"> + toString() : String</text>
<polyline fill="none" stroke="black" points="315.88,-930.9 617.26,-930.9"/>
<text text-anchor="start" x="323.88" y="-914.3" font-family="Times,serif" font-size="14.00">stats : Map&lt;String, Integer&gt;</text>
</g>
<!-- ParkingLot&#45;&gt;FeesStrategy -->
<g id="edge4" class="edge">
<title>ParkingLot-&gt;FeesStrategy</title>
<path fill="none" stroke="#595959" d="M630.66,-911.8C630.66,-911.8 723.66,-911.8 723.66,-911.8 723.66,-911.8 723.66,-796.95 723.66,-796.95"/>
<polygon fill="#595959" stroke="#595959" points="630.51,-911.8 624.51,-915.8 618.51,-911.8 624.51,-907.8 630.51,-911.8"/>
<polygon fill="#595959" stroke="#595959" points="723.66,-786.95 728.16,-796.95 723.66,-790.74 723.66,-796.95 723.66,-796.95 723.66,-796.95 723.66,-790.74 719.16,-796.95 723.66,-786.95"/>
<text text-anchor="middle" x="689.07" y="-806.74" font-family="Times,serif" font-size="14.00">feesStrategy</text>
<text text-anchor="middle" x="689.07" y="-789.94" font-family="Times,serif" font-size="14.00">1</text>
<text text-anchor="middle" x="621.11" y="-916" font-family="Times,serif" font-size="14.00">1</text>
</g>
<!-- ParkingLot&#45;&gt;ParkingFloor -->
<g id="edge5" class="edge">
<title>ParkingLot-&gt;ParkingFloor</title>
<path fill="none" stroke="#595959" d="M516.8,-892.78C516.8,-892.78 516.8,-851.12 516.8,-851.12"/>
<polygon fill="#595959" stroke="#595959" points="516.8,-892.93 520.8,-898.93 516.8,-904.93 512.8,-898.93 516.8,-892.93"/>
<polygon fill="#595959" stroke="#595959" points="516.8,-841.12 521.3,-851.12 516.8,-844.9 516.8,-851.12 516.8,-851.12 516.8,-851.12 516.8,-844.9 512.3,-851.12 516.8,-841.12"/>
<text text-anchor="middle" x="477.52" y="-860.9" font-family="Times,serif" font-size="14.00">parkingFloors</text>
<text text-anchor="middle" x="477.52" y="-844.1" font-family="Times,serif" font-size="14.00">*</text>
<text text-anchor="middle" x="513.3" y="-893.24" font-family="Times,serif" font-size="14.00">1</text>
</g>
<!-- Ticket -->
<g id="node13" class="node">
<title>Ticket</title>
<polygon fill="none" stroke="black" points="0,-635.5 0,-869.1 273.13,-869.1 273.13,-635.5 0,-635.5"/>
<text text-anchor="middle" x="136.57" y="-852.5" font-family="Times,serif" font-size="14.00">Ticket</text>
<polyline fill="none" stroke="black" points="0,-844.3 273.13,-844.3"/>
<text text-anchor="start" x="8" y="-827.7" font-family="Times,serif" font-size="14.00">+ Ticket(String, long, Vehicle, ParkingSlot) : </text>
<polyline fill="none" stroke="black" points="0,-819.5 273.13,-819.5"/>
<text text-anchor="start" x="8" y="-802.9" font-family="Times,serif" font-size="14.00">- endTime : long</text>
<text text-anchor="start" x="8" y="-786.1" font-family="Times,serif" font-size="14.00"> - vehicle : Vehicle</text>
<text text-anchor="start" x="8" y="-769.3" font-family="Times,serif" font-size="14.00"> - startTime : long</text>
<text text-anchor="start" x="8" y="-752.5" font-family="Times,serif" font-size="14.00"> - id : String</text>
<text text-anchor="start" x="8" y="-735.7" font-family="Times,serif" font-size="14.00"> - parkingSlot : ParkingSlot</text>
<polyline fill="none" stroke="black" points="0,-727.5 273.13,-727.5"/>
<text text-anchor="start" x="8" y="-710.9" font-family="Times,serif" font-size="14.00">parkingSlot : ParkingSlot</text>
<text text-anchor="start" x="8" y="-694.1" font-family="Times,serif" font-size="14.00"> endTime : long</text>
<text text-anchor="start" x="8" y="-677.3" font-family="Times,serif" font-size="14.00"> vehicle : Vehicle</text>
<text text-anchor="start" x="8" y="-660.5" font-family="Times,serif" font-size="14.00"> id : String</text>
<text text-anchor="start" x="8" y="-643.7" font-family="Times,serif" font-size="14.00"> startTime : long</text>
</g>
<!-- ParkingLot&#45;&gt;Ticket -->
<g id="edge6" class="edge">
<title>ParkingLot-&gt;Ticket</title>
<path fill="none" stroke="#595959" d="M416.34,-892.69C416.34,-892.69 416.34,-854.8 416.34,-854.8 416.34,-854.8 284.8,-854.8 284.8,-854.8"/>
<polygon fill="#595959" stroke="#595959" points="416.34,-892.84 420.34,-898.84 416.34,-904.84 412.34,-898.84 416.34,-892.84"/>
<polygon fill="#595959" stroke="#595959" points="274.8,-854.8 284.8,-850.3 278.58,-854.8 284.8,-854.8 284.8,-854.8 284.8,-854.8 278.58,-854.8 284.8,-859.3 274.8,-854.8"/>
<text text-anchor="middle" x="304.69" y="-875.8" font-family="Times,serif" font-size="14.00">ticketsMap</text>
<text text-anchor="middle" x="304.69" y="-859" font-family="Times,serif" font-size="14.00">*</text>
<text text-anchor="middle" x="412.84" y="-893.14" font-family="Times,serif" font-size="14.00">1</text>
</g>
<!-- ParkingLotDemo -->
<g id="node6" class="node">
<title>ParkingLotDemo</title>
<polygon fill="none" stroke="black" points="1384.46,-918.5 1384.46,-1026.5 1614.67,-1026.5 1614.67,-918.5 1384.46,-918.5"/>
<text text-anchor="middle" x="1499.57" y="-1009.9" font-family="Times,serif" font-size="14.00">ParkingLotDemo</text>
<polyline fill="none" stroke="black" points="1384.46,-1001.7 1614.67,-1001.7"/>
<text text-anchor="start" x="1392.46" y="-985.1" font-family="Times,serif" font-size="14.00">+ ParkingLotDemo() : </text>
<polyline fill="none" stroke="black" points="1384.46,-976.9 1614.67,-976.9"/>
<text text-anchor="start" x="1392.46" y="-960.3" font-family="Times,serif" font-size="14.00">- getRandomVehicle(String) : Vehicle</text>
<text text-anchor="start" x="1392.46" y="-943.5" font-family="Times,serif" font-size="14.00"> + simulate(boolean) : void</text>
<text text-anchor="start" x="1392.46" y="-926.7" font-family="Times,serif" font-size="14.00"> + main(String[]) : void</text>
</g>
<!-- ParkingLotException -->
<g id="node7" class="node">
<title>ParkingLotException</title>
<polygon fill="none" stroke="black" points="1632.95,-939.3 1632.95,-1005.7 1902.18,-1005.7 1902.18,-939.3 1632.95,-939.3"/>
<text text-anchor="middle" x="1767.57" y="-989.1" font-family="Times,serif" font-size="14.00">ParkingLotException</text>
<polyline fill="none" stroke="black" points="1632.95,-980.9 1902.18,-980.9"/>
<text text-anchor="start" x="1640.95" y="-964.3" font-family="Times,serif" font-size="14.00">+ ParkingLotException(String, Throwable) : </text>
<text text-anchor="start" x="1640.95" y="-947.5" font-family="Times,serif" font-size="14.00"> + ParkingLotException(String) : </text>
</g>
<!-- ParkingSlot&#45;&gt;Vehicle -->
<g id="edge7" class="edge">
<title>ParkingSlot-&gt;Vehicle</title>
<path fill="none" stroke="#595959" d="M628.57,-391.8C628.57,-391.8 573.28,-391.8 573.28,-391.8 573.28,-391.8 573.28,-314.36 573.28,-314.36"/>
<polygon fill="#595959" stroke="#595959" points="628.72,-391.8 634.72,-387.8 640.72,-391.8 634.72,-395.8 628.72,-391.8"/>
<polygon fill="#595959" stroke="#595959" points="573.28,-304.36 577.78,-314.36 573.28,-308.15 573.28,-314.36 573.28,-314.36 573.28,-314.36 573.28,-308.15 568.78,-314.36 573.28,-304.36"/>
<text text-anchor="middle" x="553.07" y="-324.15" font-family="Times,serif" font-size="14.00">vehicle</text>
<text text-anchor="middle" x="553.07" y="-307.35" font-family="Times,serif" font-size="14.00">1</text>
<text text-anchor="middle" x="638.12" y="-396" font-family="Times,serif" font-size="14.00">1</text>
</g>
<!-- VehicleType -->
<g id="node16" class="node">
<title>VehicleType</title>
<polygon fill="none" stroke="black" points="708.21,-0.5 708.21,-108.5 910.93,-108.5 910.93,-0.5 708.21,-0.5"/>
<text text-anchor="middle" x="809.57" y="-91.9" font-family="Times,serif" font-size="14.00">&lt;&lt;enumeration&gt;&gt;</text>
<text text-anchor="middle" x="809.57" y="-75.1" font-family="Times,serif" font-size="14.00">VehicleType</text>
<polyline fill="none" stroke="black" points="708.21,-66.9 910.93,-66.9"/>
<text text-anchor="start" x="716.21" y="-50.3" font-family="Times,serif" font-size="14.00">+ VehicleType() : </text>
<polyline fill="none" stroke="black" points="708.21,-42.1 910.93,-42.1"/>
<text text-anchor="start" x="716.21" y="-25.5" font-family="Times,serif" font-size="14.00">+ values() : VehicleType[]</text>
<text text-anchor="start" x="716.21" y="-8.7" font-family="Times,serif" font-size="14.00"> + valueOf(String) : VehicleType</text>
</g>
<!-- ParkingSlot&#45;&gt;VehicleType -->
<g id="edge8" class="edge">
<title>ParkingSlot-&gt;VehicleType</title>
<path fill="none" stroke="#595959" d="M809.57,-326.71C809.57,-326.71 809.57,-120.09 809.57,-120.09"/>
<polygon fill="#595959" stroke="#595959" points="809.57,-326.86 813.57,-332.86 809.57,-338.86 805.57,-332.86 809.57,-326.86"/>
<polygon fill="#595959" stroke="#595959" points="809.57,-110.09 814.07,-120.09 809.57,-113.87 809.57,-120.09 809.57,-120.09 809.57,-120.09 809.57,-113.87 805.07,-120.09 809.57,-110.09"/>
<text text-anchor="middle" x="856.62" y="-129.87" font-family="Times,serif" font-size="14.00">parkingSlotType</text>
<text text-anchor="middle" x="856.62" y="-113.07" font-family="Times,serif" font-size="14.00">1</text>
<text text-anchor="middle" x="806.07" y="-327.16" font-family="Times,serif" font-size="14.00">1</text>
</g>
<!-- ParkingSlotSafe -->
<g id="node9" class="node">
<title>ParkingSlotSafe</title>
<polygon fill="none" stroke="black" points="868.87,-690.3 868.87,-814.3 1200.27,-814.3 1200.27,-690.3 868.87,-690.3"/>
<text text-anchor="middle" x="1034.57" y="-797.7" font-family="Times,serif" font-size="14.00">ParkingSlotSafe</text>
<polyline fill="none" stroke="black" points="868.87,-789.5 1200.27,-789.5"/>
<text text-anchor="start" x="876.87" y="-772.9" font-family="Times,serif" font-size="14.00">+ ParkingSlotSafe(VehicleType, String) : </text>
<polyline fill="none" stroke="black" points="868.87,-764.7 1200.27,-764.7"/>
<text text-anchor="start" x="876.87" y="-748.1" font-family="Times,serif" font-size="14.00">- occupied : AtomicBoolean</text>
<polyline fill="none" stroke="black" points="868.87,-739.9 1200.27,-739.9"/>
<text text-anchor="start" x="876.87" y="-723.3" font-family="Times,serif" font-size="14.00">+ compareAndSetOccupied(boolean, boolean) : boolean</text>
<polyline fill="none" stroke="black" points="868.87,-715.1 1200.27,-715.1"/>
<text text-anchor="start" x="876.87" y="-698.5" font-family="Times,serif" font-size="14.00">occupied : boolean</text>
</g>
<!-- ParkingSlotSafe&#45;&gt;ParkingSlot -->
<g id="edge9" class="edge">
<title>ParkingSlotSafe-&gt;ParkingSlot</title>
<path fill="none" stroke="#000082" d="M922.94,-689.84C922.94,-689.84 922.94,-610.4 922.94,-610.4"/>
<polygon fill="#000082" stroke="#000082" points="926.44,-610.4 922.94,-600.4 919.44,-610.4 926.44,-610.4"/>
</g>
<!-- ParkingSlotUnSafe -->
<g id="node10" class="node">
<title>ParkingSlotUnSafe</title>
<polygon fill="none" stroke="black" points="1217.87,-690.3 1217.87,-814.3 1549.27,-814.3 1549.27,-690.3 1217.87,-690.3"/>
<text text-anchor="middle" x="1383.57" y="-797.7" font-family="Times,serif" font-size="14.00">ParkingSlotUnSafe</text>
<polyline fill="none" stroke="black" points="1217.87,-789.5 1549.27,-789.5"/>
<text text-anchor="start" x="1225.87" y="-772.9" font-family="Times,serif" font-size="14.00">+ ParkingSlotUnSafe(VehicleType, String) : </text>
<polyline fill="none" stroke="black" points="1217.87,-764.7 1549.27,-764.7"/>
<text text-anchor="start" x="1225.87" y="-748.1" font-family="Times,serif" font-size="14.00">- occupied : boolean</text>
<polyline fill="none" stroke="black" points="1217.87,-739.9 1549.27,-739.9"/>
<text text-anchor="start" x="1225.87" y="-723.3" font-family="Times,serif" font-size="14.00">+ compareAndSetOccupied(boolean, boolean) : boolean</text>
<polyline fill="none" stroke="black" points="1217.87,-715.1 1549.27,-715.1"/>
<text text-anchor="start" x="1225.87" y="-698.5" font-family="Times,serif" font-size="14.00">occupied : boolean</text>
</g>
<!-- ParkingSlotUnSafe&#45;&gt;ParkingSlot -->
<g id="edge10" class="edge">
<title>ParkingSlotUnSafe-&gt;ParkingSlot</title>
<path fill="none" stroke="#000082" d="M1383.57,-689.84C1383.57,-606.5 1383.57,-469.3 1383.57,-469.3 1383.57,-469.3 988.65,-469.3 988.65,-469.3"/>
<polygon fill="#000082" stroke="#000082" points="988.65,-465.8 978.65,-469.3 988.65,-472.8 988.65,-465.8"/>
</g>
<!-- RefinedFeesStrategy -->
<g id="node11" class="node">
<title>RefinedFeesStrategy</title>
<polygon fill="none" stroke="black" points="1174.85,-935.3 1174.85,-1009.7 1366.28,-1009.7 1366.28,-935.3 1174.85,-935.3"/>
<text text-anchor="middle" x="1270.57" y="-993.1" font-family="Times,serif" font-size="14.00">RefinedFeesStrategy</text>
<polyline fill="none" stroke="black" points="1174.85,-984.9 1366.28,-984.9"/>
<text text-anchor="start" x="1182.85" y="-968.3" font-family="Times,serif" font-size="14.00">+ RefinedFeesStrategy() : </text>
<polyline fill="none" stroke="black" points="1174.85,-960.1 1366.28,-960.1"/>
<text text-anchor="start" x="1182.85" y="-943.5" font-family="Times,serif" font-size="14.00">+ calculateFee(Ticket) : double</text>
</g>
<!-- RefinedFeesStrategy&#45;&gt;FeesStrategy -->
<g id="edge11" class="edge">
<title>RefinedFeesStrategy-&gt;FeesStrategy</title>
<path fill="none" stroke="#008200" stroke-dasharray="5,2" d="M1174.58,-972.5C1053.27,-972.5 860.07,-972.5 860.07,-972.5 860.07,-972.5 860.07,-752.3 860.07,-752.3 860.07,-752.3 859.22,-752.3 859.22,-752.3"/>
<polygon fill="#008200" stroke="#008200" points="863.04,-748.8 853.04,-752.3 863.03,-755.8 863.04,-748.8"/>
</g>
<!-- RefinedFeesStrategy&#45;&gt;VehicleType -->
<g id="edge12" class="edge">
<title>RefinedFeesStrategy-&gt;VehicleType</title>
<path fill="none" stroke="#595959" d="M1209.07,-921.75C1209.07,-921.75 1209.07,-54.5 1209.07,-54.5 1209.07,-54.5 922.63,-54.5 922.63,-54.5"/>
<polygon fill="#595959" stroke="#595959" points="1209.07,-921.9 1213.07,-927.9 1209.07,-933.9 1205.07,-927.9 1209.07,-921.9"/>
<polygon fill="#595959" stroke="#595959" points="912.63,-54.5 922.63,-50 916.41,-54.5 922.63,-54.5 922.63,-54.5 922.63,-54.5 916.41,-54.5 922.63,-59 912.63,-54.5"/>
<text text-anchor="middle" x="935.51" y="-75.5" font-family="Times,serif" font-size="14.00">feesMap</text>
<text text-anchor="middle" x="935.51" y="-58.7" font-family="Times,serif" font-size="14.00">*</text>
<text text-anchor="middle" x="1205.57" y="-922.2" font-family="Times,serif" font-size="14.00">1</text>
</g>
<!-- SimpleFeesStrategy -->
<g id="node12" class="node">
<title>SimpleFeesStrategy</title>
<polygon fill="none" stroke="black" points="659.85,-935.3 659.85,-1009.7 851.28,-1009.7 851.28,-935.3 659.85,-935.3"/>
<text text-anchor="middle" x="755.57" y="-993.1" font-family="Times,serif" font-size="14.00">SimpleFeesStrategy</text>
<polyline fill="none" stroke="black" points="659.85,-984.9 851.28,-984.9"/>
<text text-anchor="start" x="667.85" y="-968.3" font-family="Times,serif" font-size="14.00">+ SimpleFeesStrategy() : </text>
<polyline fill="none" stroke="black" points="659.85,-960.1 851.28,-960.1"/>
<text text-anchor="start" x="667.85" y="-943.5" font-family="Times,serif" font-size="14.00">+ calculateFee(Ticket) : double</text>
</g>
<!-- SimpleFeesStrategy&#45;&gt;FeesStrategy -->
<g id="edge13" class="edge">
<title>SimpleFeesStrategy-&gt;FeesStrategy</title>
<path fill="none" stroke="#008200" stroke-dasharray="5,2" d="M787.47,-935.15C787.47,-935.15 787.47,-797.38 787.47,-797.38"/>
<polygon fill="#008200" stroke="#008200" points="790.97,-797.38 787.47,-787.38 783.97,-797.38 790.97,-797.38"/>
</g>
<!-- Ticket&#45;&gt;ParkingSlot -->
<g id="edge14" class="edge">
<title>Ticket-&gt;ParkingSlot</title>
<path fill="none" stroke="#595959" d="M286.68,-654.73C286.68,-654.73 648.03,-654.73 648.03,-654.73 648.03,-654.73 648.03,-610.06 648.03,-610.06"/>
<polygon fill="#595959" stroke="#595959" points="286.53,-654.73 280.53,-658.73 274.53,-654.73 280.53,-650.73 286.53,-654.73"/>
<polygon fill="#595959" stroke="#595959" points="648.03,-600.06 652.53,-610.06 648.03,-603.85 648.03,-610.06 648.03,-610.06 648.03,-610.06 648.03,-603.85 643.53,-610.06 648.03,-600.06"/>
<text text-anchor="middle" x="615.37" y="-586.25" font-family="Times,serif" font-size="14.00">parkingSlot</text>
<text text-anchor="middle" x="615.37" y="-569.45" font-family="Times,serif" font-size="14.00">1</text>
<text text-anchor="middle" x="277.13" y="-658.93" font-family="Times,serif" font-size="14.00">1</text>
</g>
<!-- Ticket&#45;&gt;Vehicle -->
<g id="edge15" class="edge">
<title>Ticket-&gt;Vehicle</title>
<path fill="none" stroke="#595959" d="M286.67,-644.87C286.67,-644.87 499.76,-644.87 499.76,-644.87 499.76,-644.87 499.76,-314.62 499.76,-314.62"/>
<polygon fill="#595959" stroke="#595959" points="286.52,-644.87 280.52,-648.87 274.52,-644.87 280.52,-640.87 286.52,-644.87"/>
<polygon fill="#595959" stroke="#595959" points="499.76,-304.62 504.26,-314.62 499.76,-308.41 499.76,-314.62 499.76,-314.62 499.76,-314.62 499.76,-308.41 495.26,-314.62 499.76,-304.62"/>
<text text-anchor="middle" x="479.55" y="-324.41" font-family="Times,serif" font-size="14.00">vehicle</text>
<text text-anchor="middle" x="479.55" y="-307.61" font-family="Times,serif" font-size="14.00">1</text>
<text text-anchor="middle" x="277.12" y="-632.27" font-family="Times,serif" font-size="14.00">1</text>
</g>
<!-- Truck -->
<g id="node14" class="node">
<title>Truck</title>
<polygon fill="none" stroke="black" points="508.93,-444.5 508.93,-494.1 624.2,-494.1 624.2,-444.5 508.93,-444.5"/>
<text text-anchor="middle" x="566.57" y="-477.5" font-family="Times,serif" font-size="14.00">Truck</text>
<polyline fill="none" stroke="black" points="508.93,-469.3 624.2,-469.3"/>
<text text-anchor="start" x="516.93" y="-452.7" font-family="Times,serif" font-size="14.00">+ Truck(String) : </text>
</g>
<!-- Truck&#45;&gt;Vehicle -->
<g id="edge16" class="edge">
<title>Truck-&gt;Vehicle</title>
<path fill="none" stroke="#000082" d="M541.11,-444C541.11,-444 541.11,-315.08 541.11,-315.08"/>
<polygon fill="#000082" stroke="#000082" points="544.61,-315.08 541.11,-305.08 537.61,-315.08 544.61,-315.08"/>
</g>
<!-- Vehicle&#45;&gt;VehicleType -->
<g id="edge17" class="edge">
<title>Vehicle-&gt;VehicleType</title>
<path fill="none" stroke="#595959" d="M503.57,-132.31C503.57,-132.31 503.57,-54.5 503.57,-54.5 503.57,-54.5 696.88,-54.5 696.88,-54.5"/>
<polygon fill="#595959" stroke="#595959" points="503.57,-132.46 507.57,-138.46 503.57,-144.46 499.57,-138.46 503.57,-132.46"/>
<polygon fill="#595959" stroke="#595959" points="706.88,-54.5 696.88,-59 703.1,-54.5 696.88,-54.5 696.88,-54.5 696.88,-54.5 703.1,-54.5 696.88,-50 706.88,-54.5"/>
<text text-anchor="middle" x="696.05" y="-75.5" font-family="Times,serif" font-size="14.00">type</text>
<text text-anchor="middle" x="696.05" y="-58.7" font-family="Times,serif" font-size="14.00">1</text>
<text text-anchor="middle" x="500.07" y="-132.77" font-family="Times,serif" font-size="14.00">1</text>
</g>
</g>
</svg>