<svg xmlns="http://www.w3.org/2000/svg" xmlns:xlink="http://www.w3.org/1999/xlink" width="1201pt" height="1905pt" viewBox="0.00 0.00 1201.08 1905.20">
<g id="graph0" class="graph" transform="scale(1 1) rotate(0) translate(4 1901.2)">
<title>package</title>
<polygon fill="white" stroke="none" points="-4,4 -4,-1901.2 1197.08,-1901.2 1197.08,4 -4,4"/>
<!-- Answer -->
<g id="node1" class="node">
<title>Answer</title>
<polygon fill="none" stroke="black" points="77.2,-1520.7 77.2,-1896.7 311.2,-1896.7 311.2,-1520.7 77.2,-1520.7"/>
<text text-anchor="middle" x="194.2" y="-1880.1" font-family="Times,serif" font-size="14.00">Answer</text>
<polyline fill="none" stroke="black" points="77.2,-1871.9 311.2,-1871.9"/>
<text text-anchor="start" x="85.2" y="-1855.3" font-family="Times,serif" font-size="14.00">+ Answer(User, Question, String) : </text>
<polyline fill="none" stroke="black" points="77.2,-1847.1 311.2,-1847.1"/>
<text text-anchor="start" x="85.2" y="-1830.5" font-family="Times,serif" font-size="14.00">- user : User</text>
<text text-anchor="start" x="85.2" y="-1813.7" font-family="Times,serif" font-size="14.00"> - votes : Map&lt;String, Vote&gt;</text>
<text text-anchor="start" x="85.2" y="-1796.9" font-family="Times,serif" font-size="14.00"> - id : String</text>
<text text-anchor="start" x="85.2" y="-1780.1" font-family="Times,serif" font-size="14.00"> - content : String</text>
<text text-anchor="start" x="85.2" y="-1763.3" font-family="Times,serif" font-size="14.00"> - question : Question</text>
<text text-anchor="start" x="85.2" y="-1746.5" font-family="Times,serif" font-size="14.00"> - comments : Map&lt;String, Comment&gt;</text>
<polyline fill="none" stroke="black" points="77.2,-1738.3 311.2,-1738.3"/>
<text text-anchor="start" x="85.2" y="-1721.7" font-family="Times,serif" font-size="14.00">+ getVote(String) : Vote</text>
<text text-anchor="start" x="85.2" y="-1704.9" font-family="Times,serif" font-size="14.00"> + addComment(Comment) : void</text>
<text text-anchor="start" x="85.2" y="-1688.1" font-family="Times,serif" font-size="14.00"> + removeVote(String) : void</text>
<text text-anchor="start" x="85.2" y="-1671.3" font-family="Times,serif" font-size="14.00"> + getComment(String) : Comment</text>
<text text-anchor="start" x="85.2" y="-1654.5" font-family="Times,serif" font-size="14.00"> + removeComment(String) : void</text>
<text text-anchor="start" x="85.2" y="-1637.7" font-family="Times,serif" font-size="14.00"> + addVote(Vote) : void</text>
<polyline fill="none" stroke="black" points="77.2,-1629.5 311.2,-1629.5"/>
<text text-anchor="start" x="85.2" y="-1612.9" font-family="Times,serif" font-size="14.00">question : Question</text>
<text text-anchor="start" x="85.2" y="-1596.1" font-family="Times,serif" font-size="14.00"> content : String</text>
<text text-anchor="start" x="85.2" y="-1579.3" font-family="Times,serif" font-size="14.00"> votes : Map&lt;String, Vote&gt;</text>
<text text-anchor="start" x="85.2" y="-1562.5" font-family="Times,serif" font-size="14.00"> comments : Map&lt;String, Comment&gt;</text>
<text text-anchor="start" x="85.2" y="-1545.7" font-family="Times,serif" font-size="14.00"> id : String</text>
<text text-anchor="start" x="85.2" y="-1528.9" font-family="Times,serif" font-size="14.00"> user : User</text>
</g>
<!-- Comment -->
<g id="node2" class="node">
<title>Comment</title>
<polygon fill="none" stroke="black" points="231.19,-1204.1 231.19,-1437.7 487.22,-1437.7 487.22,-1204.1 231.19,-1204.1"/>
<text text-anchor="middle" x="359.2" y="-1421.1" font-family="Times,serif" font-size="14.00">Comment</text>
<polyline fill="none" stroke="black" points="231.19,-1412.9 487.22,-1412.9"/>
<text text-anchor="start" x="239.19" y="-1396.3" font-family="Times,serif" font-size="14.00">+ Comment(User, String, Commentable) : </text>
<polyline fill="none" stroke="black" points="231.19,-1388.1 487.22,-1388.1"/>
<text text-anchor="start" x="239.19" y="-1371.5" font-family="Times,serif" font-size="14.00">- commentable : Commentable</text>
<text text-anchor="start" x="239.19" y="-1354.7" font-family="Times,serif" font-size="14.00"> - content : String</text>
<text text-anchor="start" x="239.19" y="-1337.9" font-family="Times,serif" font-size="14.00"> - date : Date</text>
<text text-anchor="start" x="239.19" y="-1321.1" font-family="Times,serif" font-size="14.00"> - id : String</text>
<text text-anchor="start" x="239.19" y="-1304.3" font-family="Times,serif" font-size="14.00"> - user : User</text>
<polyline fill="none" stroke="black" points="231.19,-1296.1 487.22,-1296.1"/>
<text text-anchor="start" x="239.19" y="-1279.5" font-family="Times,serif" font-size="14.00">content : String</text>
<text text-anchor="start" x="239.19" y="-1262.7" font-family="Times,serif" font-size="14.00"> commentable : Commentable</text>
<text text-anchor="start" x="239.19" y="-1245.9" font-family="Times,serif" font-size="14.00"> id : String</text>
<text text-anchor="start" x="239.19" y="-1229.1" font-family="Times,serif" font-size="14.00"> user : User</text>
<text text-anchor="start" x="239.19" y="-1212.3" font-family="Times,serif" font-size="14.00"> date : Date</text>
</g>
<!-- Answer&#45;&gt;Comment -->
<g id="edge1" class="edge">
<title>Answer-&gt;Comment</title>
<path fill="none" stroke="#595959" d="M271.2,-1507.43C271.2,-1507.43 271.2,-1449.34 271.2,-1449.34"/>
<polygon fill="#595959" stroke="#595959" points="271.2,-1507.58 275.2,-1513.58 271.2,-1519.58 267.2,-1513.58 271.2,-1507.58"/>
<polygon fill="#595959" stroke="#595959" points="271.2,-1439.34 275.7,-1449.34 271.2,-1443.13 271.2,-1449.34 271.2,-1449.34 271.2,-1449.34 271.2,-1443.13 266.7,-1449.34 271.2,-1439.34"/>
<text text-anchor="middle" x="242.42" y="-1459.13" font-family="Times,serif" font-size="14.00">comments</text>
<text text-anchor="middle" x="242.42" y="-1442.33" font-family="Times,serif" font-size="14.00">*</text>
<text text-anchor="middle" x="267.7" y="-1507.88" font-family="Times,serif" font-size="14.00">1</text>
</g>
<!-- Commentable -->
<g id="node3" class="node">
<title>Commentable</title>
<polygon fill="none" stroke="black" points="384.76,-178.7 384.76,-278.7 597.64,-278.7 597.64,-178.7 384.76,-178.7"/>
<text text-anchor="middle" x="491.2" y="-262.1" font-family="Times,serif" font-size="14.00">&lt;&lt;interface&gt;&gt;</text>
<text text-anchor="middle" x="491.2" y="-245.3" font-family="Times,serif" font-size="14.00">Commentable</text>
<polyline fill="none" stroke="black" points="384.76,-237.1 597.64,-237.1"/>
<text text-anchor="start" x="392.76" y="-220.5" font-family="Times,serif" font-size="14.00">+ addComment(Comment) : void</text>
<text text-anchor="start" x="392.76" y="-203.7" font-family="Times,serif" font-size="14.00"> + removeComment(String) : void</text>
<text text-anchor="start" x="392.76" y="-186.9" font-family="Times,serif" font-size="14.00"> + getComment(String) : Comment</text>
</g>
<!-- Answer&#45;&gt;Commentable -->
<g id="edge2" class="edge">
<title>Answer-&gt;Commentable</title>
<path fill="none" stroke="#008200" stroke-dasharray="5,2" d="M311.65,-1595.6C394.7,-1595.6 491.35,-1595.6 491.35,-1595.6 491.35,-1595.6 491.35,-290.48 491.35,-290.48"/>
<polygon fill="#008200" stroke="#008200" points="494.85,-290.48 491.35,-280.48 487.85,-290.48 494.85,-290.48"/>
</g>
<!-- Question -->
<g id="node5" class="node">
<title>Question</title>
<polygon fill="none" stroke="black" points="170.2,-348.9 170.2,-808.9 404.2,-808.9 404.2,-348.9 170.2,-348.9"/>
<text text-anchor="middle" x="287.2" y="-792.3" font-family="Times,serif" font-size="14.00">Question</text>
<polyline fill="none" stroke="black" points="170.2,-784.1 404.2,-784.1"/>
<text text-anchor="start" x="178.2" y="-767.5" font-family="Times,serif" font-size="14.00">+ Question(User, String) : </text>
<polyline fill="none" stroke="black" points="170.2,-759.3 404.2,-759.3"/>
<text text-anchor="start" x="178.2" y="-742.7" font-family="Times,serif" font-size="14.00">- votes : Map&lt;String, Vote&gt;</text>
<text text-anchor="start" x="178.2" y="-725.9" font-family="Times,serif" font-size="14.00"> - content : String</text>
<text text-anchor="start" x="178.2" y="-709.1" font-family="Times,serif" font-size="14.00"> - user : User</text>
<text text-anchor="start" x="178.2" y="-692.3" font-family="Times,serif" font-size="14.00"> - comments : Map&lt;String, Comment&gt;</text>
<text text-anchor="start" x="178.2" y="-675.5" font-family="Times,serif" font-size="14.00"> - id : String</text>
<text text-anchor="start" x="178.2" y="-658.7" font-family="Times,serif" font-size="14.00"> - answers : Map&lt;String, Answer&gt;</text>
<text text-anchor="start" x="178.2" y="-641.9" font-family="Times,serif" font-size="14.00"> - tags : Map&lt;String, Tag&gt;</text>
<polyline fill="none" stroke="black" points="170.2,-633.7 404.2,-633.7"/>
<text text-anchor="start" x="178.2" y="-617.1" font-family="Times,serif" font-size="14.00">+ addComment(Comment) : void</text>
<text text-anchor="start" x="178.2" y="-600.3" font-family="Times,serif" font-size="14.00"> + removeComment(String) : void</text>
<text text-anchor="start" x="178.2" y="-583.5" font-family="Times,serif" font-size="14.00"> + getVote(String) : Vote</text>
<text text-anchor="start" x="178.2" y="-566.7" font-family="Times,serif" font-size="14.00"> + removeVote(String) : void</text>
<text text-anchor="start" x="178.2" y="-549.9" font-family="Times,serif" font-size="14.00"> + addAnswer(Answer) : void</text>
<text text-anchor="start" x="178.2" y="-533.1" font-family="Times,serif" font-size="14.00"> + addVote(Vote) : void</text>
<text text-anchor="start" x="178.2" y="-516.3" font-family="Times,serif" font-size="14.00"> + removeTag(String) : void</text>
<text text-anchor="start" x="178.2" y="-499.5" font-family="Times,serif" font-size="14.00"> + addTag(Tag) : void</text>
<text text-anchor="start" x="178.2" y="-482.7" font-family="Times,serif" font-size="14.00"> + getComment(String) : Comment</text>
<polyline fill="none" stroke="black" points="170.2,-474.5 404.2,-474.5"/>
<text text-anchor="start" x="178.2" y="-457.9" font-family="Times,serif" font-size="14.00">content : String</text>
<text text-anchor="start" x="178.2" y="-441.1" font-family="Times,serif" font-size="14.00"> tags : List&lt;Tag&gt;</text>
<text text-anchor="start" x="178.2" y="-424.3" font-family="Times,serif" font-size="14.00"> votes : Map&lt;String, Vote&gt;</text>
<text text-anchor="start" x="178.2" y="-407.5" font-family="Times,serif" font-size="14.00"> comments : Map&lt;String, Comment&gt;</text>
<text text-anchor="start" x="178.2" y="-390.7" font-family="Times,serif" font-size="14.00"> answers : Map&lt;String, Answer&gt;</text>
<text text-anchor="start" x="178.2" y="-373.9" font-family="Times,serif" font-size="14.00"> id : String</text>
<text text-anchor="start" x="178.2" y="-357.1" font-family="Times,serif" font-size="14.00"> user : User</text>
</g>
<!-- Answer&#45;&gt;Question -->
<g id="edge3" class="edge">
<title>Answer-&gt;Question</title>
<path fill="none" stroke="#595959" d="M133,-1507.4C133,-1507.4 133,-655.73 133,-655.73 133,-655.73 158.72,-655.73 158.72,-655.73"/>
<polygon fill="#595959" stroke="#595959" points="133,-1507.55 137,-1513.55 133,-1519.55 129,-1513.55 133,-1507.55"/>
<polygon fill="#595959" stroke="#595959" points="168.72,-655.73 158.72,-660.23 164.94,-655.73 158.72,-655.73 158.72,-655.73 158.72,-655.73 164.94,-655.73 158.72,-651.23 168.72,-655.73"/>
<text text-anchor="middle" x="146.22" y="-676.73" font-family="Times,serif" font-size="14.00">question</text>
<text text-anchor="middle" x="146.22" y="-659.93" font-family="Times,serif" font-size="14.00">1</text>
<text text-anchor="middle" x="129.5" y="-1507.85" font-family="Times,serif" font-size="14.00">1</text>
</g>
<!-- User -->
<g id="node12" class="node">
<title>User</title>
<polygon fill="none" stroke="black" points="174.87,-845.9 174.87,-1121.1 399.54,-1121.1 399.54,-845.9 174.87,-845.9"/>
<text text-anchor="middle" x="287.2" y="-1104.5" font-family="Times,serif" font-size="14.00">User</text>
<polyline fill="none" stroke="black" points="174.87,-1096.3 399.54,-1096.3"/>
<text text-anchor="start" x="182.87" y="-1079.7" font-family="Times,serif" font-size="14.00">+ User(String, String) : </text>
<polyline fill="none" stroke="black" points="174.87,-1071.5 399.54,-1071.5"/>
<text text-anchor="start" x="182.87" y="-1054.9" font-family="Times,serif" font-size="14.00">- answers : Map&lt;String, Answer&gt;</text>
<text text-anchor="start" x="182.87" y="-1038.1" font-family="Times,serif" font-size="14.00"> - questions : Map&lt;String, Question&gt;</text>
<text text-anchor="start" x="182.87" y="-1021.3" font-family="Times,serif" font-size="14.00"> - userId : String</text>
<text text-anchor="start" x="182.87" y="-1004.5" font-family="Times,serif" font-size="14.00"> - reputation : AtomicInteger</text>
<text text-anchor="start" x="182.87" y="-987.7" font-family="Times,serif" font-size="14.00"> - name : String</text>
<polyline fill="none" stroke="black" points="174.87,-979.5 399.54,-979.5"/>
<text text-anchor="start" x="182.87" y="-962.9" font-family="Times,serif" font-size="14.00">+ addQuestion(Question) : void</text>
<text text-anchor="start" x="182.87" y="-946.1" font-family="Times,serif" font-size="14.00"> + addAnswer(Answer) : void</text>
<polyline fill="none" stroke="black" points="174.87,-937.9 399.54,-937.9"/>
<text text-anchor="start" x="182.87" y="-921.3" font-family="Times,serif" font-size="14.00">name : String</text>
<text text-anchor="start" x="182.87" y="-904.5" font-family="Times,serif" font-size="14.00"> answers : List&lt;Answer&gt;</text>
<text text-anchor="start" x="182.87" y="-887.7" font-family="Times,serif" font-size="14.00"> reputation : int</text>
<text text-anchor="start" x="182.87" y="-870.9" font-family="Times,serif" font-size="14.00"> questions : List&lt;Question&gt;</text>
<text text-anchor="start" x="182.87" y="-854.1" font-family="Times,serif" font-size="14.00"> userId : String</text>
</g>
<!-- Answer&#45;&gt;User -->
<g id="edge4" class="edge">
<title>Answer-&gt;User</title>
<path fill="none" stroke="#595959" d="M203.03,-1507.48C203.03,-1507.48 203.03,-1132.77 203.03,-1132.77"/>
<polygon fill="#595959" stroke="#595959" points="203.03,-1507.63 207.03,-1513.63 203.03,-1519.63 199.03,-1513.63 203.03,-1507.63"/>
<polygon fill="#595959" stroke="#595959" points="203.03,-1122.77 207.53,-1132.77 203.03,-1126.55 203.03,-1132.77 203.03,-1132.77 203.03,-1132.77 203.03,-1126.55 198.53,-1132.77 203.03,-1122.77"/>
<text text-anchor="middle" x="191.36" y="-1142.55" font-family="Times,serif" font-size="14.00">user</text>
<text text-anchor="middle" x="191.36" y="-1125.75" font-family="Times,serif" font-size="14.00">1</text>
<text text-anchor="middle" x="199.53" y="-1507.93" font-family="Times,serif" font-size="14.00">1</text>
</g>
<!-- Votable -->
<g id="node13" class="node">
<title>Votable</title>
<polygon fill="none" stroke="black" points="615.24,-178.7 615.24,-278.7 791.16,-278.7 791.16,-178.7 615.24,-178.7"/>
<text text-anchor="middle" x="703.2" y="-262.1" font-family="Times,serif" font-size="14.00">&lt;&lt;interface&gt;&gt;</text>
<text text-anchor="middle" x="703.2" y="-245.3" font-family="Times,serif" font-size="14.00">Votable</text>
<polyline fill="none" stroke="black" points="615.24,-237.1 791.16,-237.1"/>
<text text-anchor="start" x="623.24" y="-220.5" font-family="Times,serif" font-size="14.00">+ removeVote(String) : void</text>
<text text-anchor="start" x="623.24" y="-203.7" font-family="Times,serif" font-size="14.00"> + getVote(String) : Vote</text>
<text text-anchor="start" x="623.24" y="-186.9" font-family="Times,serif" font-size="14.00"> + addVote(Vote) : void</text>
</g>
<!-- Answer&#45;&gt;Votable -->
<g id="edge5" class="edge">
<title>Answer-&gt;Votable</title>
<path fill="none" stroke="#008200" stroke-dasharray="5,2" d="M217.11,-1520.38C217.11,-1354.67 217.11,-1139.6 217.11,-1139.6 217.11,-1139.6 679.27,-1139.6 679.27,-1139.6 679.27,-1139.6 679.27,-290.48 679.27,-290.48"/>
<polygon fill="#008200" stroke="#008200" points="682.77,-290.48 679.27,-280.48 675.77,-290.49 682.77,-290.48"/>
</g>
<!-- Vote -->
<g id="node14" class="node">
<title>Vote</title>
<polygon fill="none" stroke="black" points="11.08,-145.5 11.08,-311.9 175.32,-311.9 175.32,-145.5 11.08,-145.5"/>
<text text-anchor="middle" x="93.2" y="-295.3" font-family="Times,serif" font-size="14.00">Vote</text>
<polyline fill="none" stroke="black" points="11.08,-287.1 175.32,-287.1"/>
<text text-anchor="start" x="19.08" y="-270.5" font-family="Times,serif" font-size="14.00">+ Vote(User, VoteType) : </text>
<polyline fill="none" stroke="black" points="11.08,-262.3 175.32,-262.3"/>
<text text-anchor="start" x="19.08" y="-245.7" font-family="Times,serif" font-size="14.00">- user : User</text>
<text text-anchor="start" x="19.08" y="-228.9" font-family="Times,serif" font-size="14.00"> - id : String</text>
<text text-anchor="start" x="19.08" y="-212.1" font-family="Times,serif" font-size="14.00"> - voteType : VoteType</text>
<polyline fill="none" stroke="black" points="11.08,-203.9 175.32,-203.9"/>
<text text-anchor="start" x="19.08" y="-187.3" font-family="Times,serif" font-size="14.00">voteType : VoteType</text>
<text text-anchor="start" x="19.08" y="-170.5" font-family="Times,serif" font-size="14.00"> id : String</text>
<text text-anchor="start" x="19.08" y="-153.7" font-family="Times,serif" font-size="14.00"> user : User</text>
</g>
<!-- Answer&#45;&gt;Vote -->
<g id="edge6" class="edge">
<title>Answer-&gt;Vote</title>
<path fill="none" stroke="#595959" d="M95.8,-1507.45C95.8,-1507.45 95.8,-323.3 95.8,-323.3"/>
<polygon fill="#595959" stroke="#595959" points="95.8,-1507.6 99.8,-1513.6 95.8,-1519.6 91.8,-1513.6 95.8,-1507.6"/>
<polygon fill="#595959" stroke="#595959" points="95.8,-313.3 100.3,-323.3 95.8,-317.09 95.8,-323.3 95.8,-323.3 95.8,-323.3 95.8,-317.09 91.3,-323.3 95.8,-313.3"/>
<text text-anchor="middle" x="81.03" y="-333.09" font-family="Times,serif" font-size="14.00">votes</text>
<text text-anchor="middle" x="81.03" y="-316.29" font-family="Times,serif" font-size="14.00">*</text>
<text text-anchor="middle" x="92.3" y="-1507.91" font-family="Times,serif" font-size="14.00">1</text>
</g>
<!-- Comment&#45;&gt;Commentable -->
<g id="edge7" class="edge">
<title>Comment-&gt;Commentable</title>
<path fill="none" stroke="#595959" d="M459.55,-1190.7C459.55,-1190.7 459.55,-290.15 459.55,-290.15"/>
<polygon fill="#595959" stroke="#595959" points="459.55,-1190.85 463.55,-1196.86 459.55,-1202.85 455.55,-1196.85 459.55,-1190.85"/>
<polygon fill="#595959" stroke="#595959" points="459.55,-280.15 464.05,-290.15 459.55,-283.93 459.55,-290.15 459.55,-290.15 459.55,-290.15 459.55,-283.93 455.05,-290.15 459.55,-280.15"/>
<text text-anchor="middle" x="421.84" y="-299.93" font-family="Times,serif" font-size="14.00">commentable</text>
<text text-anchor="middle" x="421.84" y="-283.13" font-family="Times,serif" font-size="14.00">1</text>
<text text-anchor="middle" x="456.05" y="-1191.16" font-family="Times,serif" font-size="14.00">1</text>
</g>
<!-- Comment&#45;&gt;User -->
<g id="edge8" class="edge">
<title>Comment-&gt;User</title>
<path fill="none" stroke="#595959" d="M315.36,-1190.79C315.36,-1190.79 315.36,-1132.74 315.36,-1132.74"/>
<polygon fill="#595959" stroke="#595959" points="315.36,-1190.94 319.36,-1196.94 315.36,-1202.94 311.36,-1196.94 315.36,-1190.94"/>
<polygon fill="#595959" stroke="#595959" points="315.36,-1122.74 319.86,-1132.74 315.36,-1126.52 315.36,-1132.74 315.36,-1132.74 315.36,-1132.74 315.36,-1126.52 310.86,-1132.74 315.36,-1122.74"/>
<text text-anchor="middle" x="303.7" y="-1142.52" font-family="Times,serif" font-size="14.00">user</text>
<text text-anchor="middle" x="303.7" y="-1125.72" font-family="Times,serif" font-size="14.00">1</text>
<text text-anchor="middle" x="311.86" y="-1191.24" font-family="Times,serif" font-size="14.00">1</text>
</g>
<!-- InvertedIndexSearchEngine -->
<g id="node4" class="node">
<title>InvertedIndexSearchEngine</title>
<polygon fill="none" stroke="black" points="933.32,-1258.5 933.32,-1383.3 1193.08,-1383.3 1193.08,-1258.5 933.32,-1258.5"/>
<text text-anchor="middle" x="1063.2" y="-1366.7" font-family="Times,serif" font-size="14.00">InvertedIndexSearchEngine</text>
<polyline fill="none" stroke="black" points="933.32,-1358.5 1193.08,-1358.5"/>
<text text-anchor="start" x="941.32" y="-1341.9" font-family="Times,serif" font-size="14.00">+ InvertedIndexSearchEngine() : </text>
<polyline fill="none" stroke="black" points="933.32,-1333.7 1193.08,-1333.7"/>
<text text-anchor="start" x="941.32" y="-1317.1" font-family="Times,serif" font-size="14.00">+ searchQuestion(User) : List&lt;Question&gt;</text>
<text text-anchor="start" x="941.32" y="-1300.3" font-family="Times,serif" font-size="14.00"> + searchQuestion(String) : List&lt;Question&gt;</text>
<text text-anchor="start" x="941.32" y="-1283.5" font-family="Times,serif" font-size="14.00"> + searchQuestion(Tag) : List&lt;Question&gt;</text>
<text text-anchor="start" x="941.32" y="-1266.7" font-family="Times,serif" font-size="14.00"> + processQuestion(Question) : void</text>
</g>
<!-- SearchEngine -->
<g id="node6" class="node">
<title>SearchEngine</title>
<polygon fill="none" stroke="black" points="775.32,-925.1 775.32,-1041.9 1035.08,-1041.9 1035.08,-925.1 775.32,-925.1"/>
<text text-anchor="middle" x="905.2" y="-1025.3" font-family="Times,serif" font-size="14.00">&lt;&lt;interface&gt;&gt;</text>
<text text-anchor="middle" x="905.2" y="-1008.5" font-family="Times,serif" font-size="14.00">SearchEngine</text>
<polyline fill="none" stroke="black" points="775.32,-1000.3 1035.08,-1000.3"/>
<text text-anchor="start" x="783.32" y="-983.7" font-family="Times,serif" font-size="14.00">+ processQuestion(Question) : void</text>
<text text-anchor="start" x="783.32" y="-966.9" font-family="Times,serif" font-size="14.00"> + searchQuestion(String) : List&lt;Question&gt;</text>
<text text-anchor="start" x="783.32" y="-950.1" font-family="Times,serif" font-size="14.00"> + searchQuestion(Tag) : List&lt;Question&gt;</text>
<text text-anchor="start" x="783.32" y="-933.3" font-family="Times,serif" font-size="14.00"> + searchQuestion(User) : List&lt;Question&gt;</text>
</g>
<!-- InvertedIndexSearchEngine&#45;&gt;SearchEngine -->
<g id="edge9" class="edge">
<title>InvertedIndexSearchEngine-&gt;SearchEngine</title>
<path fill="none" stroke="#008200" stroke-dasharray="5,2" d="M984.2,-1258.23C984.2,-1258.23 984.2,-1053.68 984.2,-1053.68"/>
<polygon fill="#008200" stroke="#008200" points="987.7,-1053.68 984.2,-1043.68 980.7,-1053.68 987.7,-1053.68"/>
</g>
<!-- Tag -->
<g id="node10" class="node">
<title>Tag</title>
<polygon fill="none" stroke="black" points="809.55,-162.3 809.55,-295.1 932.86,-295.1 932.86,-162.3 809.55,-162.3"/>
<text text-anchor="middle" x="871.2" y="-278.5" font-family="Times,serif" font-size="14.00">Tag</text>
<polyline fill="none" stroke="black" points="809.55,-270.3 932.86,-270.3"/>
<text text-anchor="start" x="817.55" y="-253.7" font-family="Times,serif" font-size="14.00">+ Tag(String) : </text>
<polyline fill="none" stroke="black" points="809.55,-245.5 932.86,-245.5"/>
<text text-anchor="start" x="817.55" y="-228.9" font-family="Times,serif" font-size="14.00">- id : String</text>
<text text-anchor="start" x="817.55" y="-212.1" font-family="Times,serif" font-size="14.00"> - tagName : String</text>
<polyline fill="none" stroke="black" points="809.55,-203.9 932.86,-203.9"/>
<text text-anchor="start" x="817.55" y="-187.3" font-family="Times,serif" font-size="14.00">id : String</text>
<text text-anchor="start" x="817.55" y="-170.5" font-family="Times,serif" font-size="14.00"> tagName : String</text>
</g>
<!-- InvertedIndexSearchEngine&#45;&gt;Tag -->
<g id="edge10" class="edge">
<title>InvertedIndexSearchEngine-&gt;Tag</title>
<path fill="none" stroke="#595959" d="M1114.08,-1245.2C1114.08,-1245.2 1114.08,-228.7 1114.08,-228.7 1114.08,-228.7 1114.08,-239.92 1114.08,-239.92"/>
<polygon fill="#595959" stroke="#595959" points="1114.08,-1245.35 1118.08,-1251.35 1114.08,-1257.35 1110.08,-1251.35 1114.08,-1245.35"/>
<polygon fill="#595959" stroke="#595959" points="934.34,-228.78 944.6,-224.9 938.11,-229.01 944.32,-229.39 944.32,-229.39 944.32,-229.39 938.11,-229.01 944.04,-233.89 934.34,-228.78"/>
<text text-anchor="middle" x="980.93" y="-249.7" font-family="Times,serif" font-size="14.00">tagInvertedIndex</text>
<text text-anchor="middle" x="980.93" y="-232.9" font-family="Times,serif" font-size="14.00">*</text>
<text text-anchor="middle" x="1110.58" y="-1245.66" font-family="Times,serif" font-size="14.00">1</text>
</g>
<!-- Question&#45;&gt;Answer -->
<g id="edge11" class="edge">
<title>Question-&gt;Answer</title>
<path fill="none" stroke="#595959" d="M170.03,-489.01C170.03,-489.01 114.4,-502.07 114.4,-502.07 114.4,-502.07 114.4,-1509.28 114.4,-1509.28"/>
<polygon fill="#595959" stroke="#595959" points="170.03,-489.17 174.03,-495.17 170.03,-501.17 166.03,-495.17 170.03,-489.17"/>
<polygon fill="#595959" stroke="#595959" points="114.4,-1519.28 109.9,-1509.28 114.4,-1515.49 114.4,-1509.28 114.4,-1509.28 114.4,-1509.28 114.4,-1515.49 118.9,-1509.28 114.4,-1519.28"/>
<text text-anchor="middle" x="91.86" y="-1507.89" font-family="Times,serif" font-size="14.00">answers</text>
<text text-anchor="middle" x="91.86" y="-1491.09" font-family="Times,serif" font-size="14.00">*</text>
<text text-anchor="middle" x="166.53" y="-506.27" font-family="Times,serif" font-size="14.00">1</text>
</g>
<!-- Question&#45;&gt;Comment -->
<g id="edge12" class="edge">
<title>Question-&gt;Comment</title>
<path fill="none" stroke="#595959" d="M404.66,-489.01C404.66,-489.01 431.87,-502.07 431.87,-502.07 431.87,-502.07 431.87,-1192.8 431.87,-1192.8"/>
<polygon fill="#595959" stroke="#595959" points="404.66,-489.17 408.66,-495.17 404.66,-501.17 400.66,-495.17 404.66,-489.17"/>
<polygon fill="#595959" stroke="#595959" points="431.87,-1202.8 427.37,-1192.8 431.87,-1199.02 431.87,-1192.8 431.87,-1192.8 431.87,-1192.8 431.87,-1199.02 436.37,-1192.8 431.87,-1202.8"/>
<text text-anchor="middle" x="403.1" y="-1191.42" font-family="Times,serif" font-size="14.00">comments</text>
<text text-anchor="middle" x="403.1" y="-1174.62" font-family="Times,serif" font-size="14.00">*</text>
<text text-anchor="middle" x="408.16" y="-506.27" font-family="Times,serif" font-size="14.00">1</text>
</g>
<!-- Question&#45;&gt;Commentable -->
<g id="edge13" class="edge">
<title>Question-&gt;Commentable</title>
<path fill="none" stroke="#008200" stroke-dasharray="5,2" d="M391.24,-348.73C391.24,-348.73 391.24,-290.68 391.24,-290.68"/>
<polygon fill="#008200" stroke="#008200" points="394.74,-290.68 391.24,-280.68 387.74,-290.68 394.74,-290.68"/>
</g>
<!-- Question&#45;&gt;Tag -->
<g id="edge14" class="edge">
<title>Question-&gt;Tag</title>
<path fill="none" stroke="#595959" d="M397.72,-335.4C397.72,-335.4 397.72,-287.33 397.72,-287.33 397.72,-287.33 798.09,-287.33 798.09,-287.33"/>
<polygon fill="#595959" stroke="#595959" points="397.72,-335.55 401.72,-341.55 397.72,-347.55 393.72,-341.55 397.72,-335.55"/>
<polygon fill="#595959" stroke="#595959" points="808.09,-287.33 798.09,-291.83 804.3,-287.33 798.09,-287.33 798.09,-287.33 798.09,-287.33 804.3,-287.33 798.09,-282.83 808.09,-287.33"/>
<text text-anchor="middle" x="798.03" y="-308.33" font-family="Times,serif" font-size="14.00">tags</text>
<text text-anchor="middle" x="798.03" y="-291.53" font-family="Times,serif" font-size="14.00">*</text>
<text text-anchor="middle" x="394.22" y="-335.86" font-family="Times,serif" font-size="14.00">1</text>
</g>
<!-- Taggable -->
<g id="node11" class="node">
<title>Taggable</title>
<polygon fill="none" stroke="black" points="193.22,-174.7 193.22,-282.7 367.19,-282.7 367.19,-174.7 193.22,-174.7"/>
<text text-anchor="middle" x="280.2" y="-266.1" font-family="Times,serif" font-size="14.00">&lt;&lt;interface&gt;&gt;</text>
<text text-anchor="middle" x="280.2" y="-249.3" font-family="Times,serif" font-size="14.00">Taggable</text>
<polyline fill="none" stroke="black" points="193.22,-241.1 367.19,-241.1"/>
<text text-anchor="start" x="201.22" y="-224.5" font-family="Times,serif" font-size="14.00">+ addTag(Tag) : void</text>
<text text-anchor="start" x="201.22" y="-207.7" font-family="Times,serif" font-size="14.00"> + removeTag(String) : void</text>
<polyline fill="none" stroke="black" points="193.22,-199.5 367.19,-199.5"/>
<text text-anchor="start" x="201.22" y="-182.9" font-family="Times,serif" font-size="14.00">tags : List&lt;Tag&gt;</text>
</g>
<!-- Question&#45;&gt;Taggable -->
<g id="edge15" class="edge">
<title>Question-&gt;Taggable</title>
<path fill="none" stroke="#008200" stroke-dasharray="5,2" d="M280.2,-348.73C280.2,-348.73 280.2,-294.56 280.2,-294.56"/>
<polygon fill="#008200" stroke="#008200" points="283.7,-294.56 280.2,-284.56 276.7,-294.56 283.7,-294.56"/>
</g>
<!-- Question&#45;&gt;User -->
<g id="edge16" class="edge">
<title>Question-&gt;User</title>
<path fill="none" stroke="#595959" d="M249.76,-822.32C249.76,-822.32 249.76,-834.23 249.76,-834.23"/>
<polygon fill="#595959" stroke="#595959" points="249.76,-822.17 245.76,-816.17 249.76,-810.17 253.76,-816.17 249.76,-822.17"/>
<polygon fill="#595959" stroke="#595959" points="249.76,-844.23 245.26,-834.23 249.76,-840.45 249.76,-834.23 249.76,-834.23 249.76,-834.23 249.76,-840.45 254.26,-834.23 249.76,-844.23"/>
<text text-anchor="middle" x="261.42" y="-832.85" font-family="Times,serif" font-size="14.00">user</text>
<text text-anchor="middle" x="261.42" y="-816.05" font-family="Times,serif" font-size="14.00">1</text>
<text text-anchor="middle" x="246.26" y="-813.47" font-family="Times,serif" font-size="14.00">1</text>
</g>
<!-- Question&#45;&gt;Votable -->
<g id="edge17" class="edge">
<title>Question-&gt;Votable</title>
<path fill="none" stroke="#008200" stroke-dasharray="5,2" d="M404.6,-655.73C509.67,-655.73 647.26,-655.73 647.26,-655.73 647.26,-655.73 647.26,-290.46 647.26,-290.46"/>
<polygon fill="#008200" stroke="#008200" points="650.76,-290.46 647.26,-280.46 643.76,-290.46 650.76,-290.46"/>
</g>
<!-- Question&#45;&gt;Vote -->
<g id="edge18" class="edge">
<title>Question-&gt;Vote</title>
<path fill="none" stroke="#595959" d="M180.86,-335.42C180.86,-335.42 180.86,-304 180.86,-304 180.86,-304 180.34,-304 180.34,-304"/>
<polygon fill="#595959" stroke="#595959" points="180.86,-335.57 184.86,-341.57 180.86,-347.57 176.86,-341.57 180.86,-335.57"/>
<polygon fill="#595959" stroke="#595959" points="176.86,-304 186.86,-299.5 180.64,-304 186.86,-304 186.86,-304 186.86,-304 180.64,-304 186.86,-308.5 176.86,-304"/>
<text text-anchor="middle" x="190.42" y="-325" font-family="Times,serif" font-size="14.00">votes</text>
<text text-anchor="middle" x="190.42" y="-308.2" font-family="Times,serif" font-size="14.00">*</text>
<text text-anchor="middle" x="177.36" y="-335.87" font-family="Times,serif" font-size="14.00">1</text>
</g>
<!-- StackOverflowDemo -->
<g id="node7" class="node">
<title>StackOverflowDemo</title>
<polygon fill="none" stroke="black" points="328.92,-1671.5 328.92,-1745.9 495.49,-1745.9 495.49,-1671.5 328.92,-1671.5"/>
<text text-anchor="middle" x="412.2" y="-1729.3" font-family="Times,serif" font-size="14.00">StackOverflowDemo</text>
<polyline fill="none" stroke="black" points="328.92,-1721.1 495.49,-1721.1"/>
<text text-anchor="start" x="336.92" y="-1704.5" font-family="Times,serif" font-size="14.00">+ StackOverflowDemo() : </text>
<polyline fill="none" stroke="black" points="328.92,-1696.3 495.49,-1696.3"/>
<text text-anchor="start" x="336.92" y="-1679.7" font-family="Times,serif" font-size="14.00">+ main(String[]) : void</text>
</g>
<!-- StackOverflowException -->
<g id="node8" class="node">
<title>StackOverflowException</title>
<polygon fill="none" stroke="black" points="513.96,-1675.5 513.96,-1741.9 808.45,-1741.9 808.45,-1675.5 513.96,-1675.5"/>
<text text-anchor="middle" x="661.2" y="-1725.3" font-family="Times,serif" font-size="14.00">StackOverflowException</text>
<polyline fill="none" stroke="black" points="513.96,-1717.1 808.45,-1717.1"/>
<text text-anchor="start" x="521.96" y="-1700.5" font-family="Times,serif" font-size="14.00">+ StackOverflowException(String) : </text>
<text text-anchor="start" x="521.96" y="-1683.7" font-family="Times,serif" font-size="14.00"> + StackOverflowException(String, Throwable) : </text>
</g>
<!-- StackOverflowSystem -->
<g id="node9" class="node">
<title>StackOverflowSystem</title>
<polygon fill="none" stroke="black" points="581.38,-1158.1 581.38,-1483.7 915.03,-1483.7 915.03,-1158.1 581.38,-1158.1"/>
<text text-anchor="middle" x="748.2" y="-1467.1" font-family="Times,serif" font-size="14.00">StackOverflowSystem</text>
<polyline fill="none" stroke="black" points="581.38,-1458.9 915.03,-1458.9"/>
<text text-anchor="start" x="589.38" y="-1442.3" font-family="Times,serif" font-size="14.00">+ StackOverflowSystem(SearchEngine) : </text>
<polyline fill="none" stroke="black" points="581.38,-1434.1 915.03,-1434.1"/>
<text text-anchor="start" x="589.38" y="-1417.5" font-family="Times,serif" font-size="14.00">- users : Map&lt;String, User&gt;</text>
<polyline fill="none" stroke="black" points="581.38,-1409.3 915.03,-1409.3"/>
<text text-anchor="start" x="589.38" y="-1392.7" font-family="Times,serif" font-size="14.00">+ postAnswer(String, String, String) : Answer</text>
<text text-anchor="start" x="589.38" y="-1375.9" font-family="Times,serif" font-size="14.00"> - validateTagId(String) : void</text>
<text text-anchor="start" x="589.38" y="-1359.1" font-family="Times,serif" font-size="14.00"> + postQuestion(String, String, List&lt;String&gt;) : Question</text>
<text text-anchor="start" x="589.38" y="-1342.3" font-family="Times,serif" font-size="14.00"> + vote(String, String, VoteType) : Vote</text>
<text text-anchor="start" x="589.38" y="-1325.5" font-family="Times,serif" font-size="14.00"> - validateCommentableId(String) : void</text>
<text text-anchor="start" x="589.38" y="-1308.7" font-family="Times,serif" font-size="14.00"> + searchQuestionsByKeyword(String) : List&lt;Question&gt;</text>
<text text-anchor="start" x="589.38" y="-1291.9" font-family="Times,serif" font-size="14.00"> + createUser(String, String) : User</text>
<text text-anchor="start" x="589.38" y="-1275.1" font-family="Times,serif" font-size="14.00"> - validateVotableId(String) : void</text>
<text text-anchor="start" x="589.38" y="-1258.3" font-family="Times,serif" font-size="14.00"> + comment(String, String, String) : Comment</text>
<text text-anchor="start" x="589.38" y="-1241.5" font-family="Times,serif" font-size="14.00"> + searchQuestionsByUserId(String) : List&lt;Question&gt;</text>
<text text-anchor="start" x="589.38" y="-1224.7" font-family="Times,serif" font-size="14.00"> - validateUserId(String) : void</text>
<text text-anchor="start" x="589.38" y="-1207.9" font-family="Times,serif" font-size="14.00"> + postQuestion(String, String) : Question</text>
<text text-anchor="start" x="589.38" y="-1191.1" font-family="Times,serif" font-size="14.00"> + searchQuestionsByTag(String) : List&lt;Question&gt;</text>
<polyline fill="none" stroke="black" points="581.38,-1182.9 915.03,-1182.9"/>
<text text-anchor="start" x="589.38" y="-1166.3" font-family="Times,serif" font-size="14.00">users : List&lt;User&gt;</text>
</g>
<!-- StackOverflowSystem&#45;&gt;Commentable -->
<g id="edge19" class="edge">
<title>StackOverflowSystem-&gt;Commentable</title>
<path fill="none" stroke="#595959" d="M592.22,-1144.63C592.22,-1144.63 592.22,-290.19 592.22,-290.19"/>
<polygon fill="#595959" stroke="#595959" points="592.22,-1144.78 596.22,-1150.78 592.22,-1156.78 588.22,-1150.78 592.22,-1144.78"/>
<polygon fill="#595959" stroke="#595959" points="592.22,-280.19 596.72,-290.19 592.22,-283.97 592.22,-290.19 592.22,-290.19 592.22,-290.19 592.22,-283.97 587.72,-290.19 592.22,-280.19"/>
<text text-anchor="middle" x="538.96" y="-299.97" font-family="Times,serif" font-size="14.00">commentablesMap</text>
<text text-anchor="middle" x="538.96" y="-283.17" font-family="Times,serif" font-size="14.00">*</text>
<text text-anchor="middle" x="588.72" y="-1145.08" font-family="Times,serif" font-size="14.00">1</text>
</g>
<!-- StackOverflowSystem&#45;&gt;SearchEngine -->
<g id="edge20" class="edge">
<title>StackOverflowSystem-&gt;SearchEngine</title>
<path fill="none" stroke="#595959" d="M845.17,-1144.58C845.17,-1144.58 845.17,-1053.38 845.17,-1053.38"/>
<polygon fill="#595959" stroke="#595959" points="845.17,-1144.73 849.17,-1150.73 845.17,-1156.73 841.17,-1150.73 845.17,-1144.73"/>
<polygon fill="#595959" stroke="#595959" points="845.17,-1043.38 849.67,-1053.38 845.17,-1047.16 845.17,-1053.38 845.17,-1053.38 845.17,-1053.38 845.17,-1047.16 840.67,-1053.38 845.17,-1043.38"/>
<text text-anchor="middle" x="807.47" y="-1063.16" font-family="Times,serif" font-size="14.00">searchEngine</text>
<text text-anchor="middle" x="807.47" y="-1046.36" font-family="Times,serif" font-size="14.00">1</text>
<text text-anchor="middle" x="841.67" y="-1145.04" font-family="Times,serif" font-size="14.00">1</text>
</g>
<!-- StackOverflowSystem&#45;&gt;Tag -->
<g id="edge21" class="edge">
<title>StackOverflowSystem-&gt;Tag</title>
<path fill="none" stroke="#595959" d="M743.31,-1144.73C743.31,-1144.73 743.31,-291.47 743.31,-291.47 743.31,-291.47 797.91,-291.47 797.91,-291.47"/>
<polygon fill="#595959" stroke="#595959" points="743.31,-1144.88 747.31,-1150.88 743.31,-1156.88 739.31,-1150.88 743.31,-1144.88"/>
<polygon fill="#595959" stroke="#595959" points="807.91,-291.47 797.91,-295.97 804.13,-291.47 797.91,-291.47 797.91,-291.47 797.91,-291.47 804.13,-291.47 797.91,-286.97 807.91,-291.47"/>
<text text-anchor="middle" x="820.4" y="-312.47" font-family="Times,serif" font-size="14.00">tags</text>
<text text-anchor="middle" x="820.4" y="-295.67" font-family="Times,serif" font-size="14.00">*</text>
<text text-anchor="middle" x="739.81" y="-1145.18" font-family="Times,serif" font-size="14.00">1</text>
</g>
<!-- StackOverflowSystem&#45;&gt;User -->
<g id="edge22" class="edge">
<title>StackOverflowSystem-&gt;User</title>
<path fill="none" stroke="#595959" d="M586.8,-1144.86C586.8,-1144.86 586.8,-1082 586.8,-1082 586.8,-1082 410.83,-1082 410.83,-1082"/>
<polygon fill="#595959" stroke="#595959" points="586.8,-1145.02 590.8,-1151.02 586.8,-1157.02 582.8,-1151.02 586.8,-1145.02"/>
<polygon fill="#595959" stroke="#595959" points="400.83,-1082 410.83,-1077.5 404.61,-1082 410.83,-1082 410.83,-1082 410.83,-1082 404.61,-1082 410.83,-1086.5 400.83,-1082"/>
<text text-anchor="middle" x="414" y="-1103" font-family="Times,serif" font-size="14.00">users</text>
<text text-anchor="middle" x="414" y="-1086.2" font-family="Times,serif" font-size="14.00">*</text>
<text text-anchor="middle" x="583.3" y="-1145.32" font-family="Times,serif" font-size="14.00">1</text>
</g>
<!-- StackOverflowSystem&#45;&gt;Votable -->
<g id="edge23" class="edge">
<title>StackOverflowSystem-&gt;Votable</title>
<path fill="none" stroke="#595959" d="M711.29,-1144.63C711.29,-1144.63 711.29,-290.19 711.29,-290.19"/>
<polygon fill="#595959" stroke="#595959" points="711.29,-1144.78 715.29,-1150.78 711.29,-1156.78 707.29,-1150.78 711.29,-1144.78"/>
<polygon fill="#595959" stroke="#595959" points="711.29,-280.19 715.79,-290.19 711.29,-283.97 711.29,-290.19 711.29,-290.19 711.29,-290.19 711.29,-283.97 706.79,-290.19 711.29,-280.19"/>
<text text-anchor="middle" x="747.45" y="-299.97" font-family="Times,serif" font-size="14.00">votablesMap</text>
<text text-anchor="middle" x="747.45" y="-283.17" font-family="Times,serif" font-size="14.00">*</text>
<text text-anchor="middle" x="707.79" y="-1145.08" font-family="Times,serif" font-size="14.00">1</text>
</g>
<!-- User&#45;&gt;Answer -->
<g id="edge24" class="edge">
<title>User-&gt;Answer</title>
<path fill="none" stroke="#595959" d="M188.95,-1134.24C188.95,-1134.24 188.95,-1508.98 188.95,-1508.98"/>
<polygon fill="#595959" stroke="#595959" points="188.95,-1134.09 184.95,-1128.09 188.95,-1122.09 192.95,-1128.09 188.95,-1134.09"/>
<polygon fill="#595959" stroke="#595959" points="188.95,-1518.98 184.45,-1508.98 188.95,-1515.2 188.95,-1508.98 188.95,-1508.98 188.95,-1508.98 188.95,-1515.2 193.45,-1508.98 188.95,-1518.98"/>
<text text-anchor="middle" x="166.4" y="-1507.6" font-family="Times,serif" font-size="14.00">answers</text>
<text text-anchor="middle" x="166.4" y="-1490.8" font-family="Times,serif" font-size="14.00">*</text>
<text text-anchor="middle" x="185.45" y="-1125.38" font-family="Times,serif" font-size="14.00">1</text>
</g>
<!-- User&#45;&gt;Question -->
<g id="edge25" class="edge">
<title>User-&gt;Question</title>
<path fill="none" stroke="#595959" d="M324.65,-832.62C324.65,-832.62 324.65,-820.36 324.65,-820.36"/>
<polygon fill="#595959" stroke="#595959" points="324.65,-832.77 328.65,-838.77 324.65,-844.77 320.65,-838.77 324.65,-832.77"/>
<polygon fill="#595959" stroke="#595959" points="324.65,-810.36 329.15,-820.36 324.65,-814.14 324.65,-820.36 324.65,-820.36 324.65,-820.36 324.65,-814.14 320.15,-820.36 324.65,-810.36"/>
<text text-anchor="middle" x="351.09" y="-830.14" font-family="Times,serif" font-size="14.00">questions</text>
<text text-anchor="middle" x="351.09" y="-813.34" font-family="Times,serif" font-size="14.00">*</text>
<text text-anchor="middle" x="321.15" y="-833.07" font-family="Times,serif" font-size="14.00">1</text>
</g>
<!-- Vote&#45;&gt;User -->
<g id="edge26" class="edge">
<title>Vote-&gt;User</title>
<path fill="none" stroke="#595959" d="M151.6,-325.41C151.6,-325.41 151.6,-983.5 151.6,-983.5 151.6,-983.5 163.39,-983.5 163.39,-983.5"/>
<polygon fill="#595959" stroke="#595959" points="151.6,-325.26 147.6,-319.26 151.6,-313.26 155.6,-319.26 151.6,-325.26"/>
<polygon fill="#595959" stroke="#595959" points="173.39,-983.5 163.39,-988 169.61,-983.5 163.39,-983.5 163.39,-983.5 163.39,-983.5 169.61,-983.5 163.39,-979 173.39,-983.5"/>
<text text-anchor="middle" x="162.94" y="-1004.5" font-family="Times,serif" font-size="14.00">user</text>
<text text-anchor="middle" x="162.94" y="-987.7" font-family="Times,serif" font-size="14.00">1</text>
<text text-anchor="middle" x="148.1" y="-316.56" font-family="Times,serif" font-size="14.00">1</text>
</g>
<!-- VoteType -->
<g id="node15" class="node">
<title>VoteType</title>
<polygon fill="none" stroke="black" points="0,-0.5 0,-108.5 186.41,-108.5 186.41,-0.5 0,-0.5"/>
<text text-anchor="middle" x="93.2" y="-91.9" font-family="Times,serif" font-size="14.00">&lt;&lt;enumeration&gt;&gt;</text>
<text text-anchor="middle" x="93.2" y="-75.1" font-family="Times,serif" font-size="14.00">VoteType</text>
<polyline fill="none" stroke="black" points="0,-66.9 186.41,-66.9"/>
<text text-anchor="start" x="8" y="-50.3" font-family="Times,serif" font-size="14.00">+ VoteType() : </text>
<polyline fill="none" stroke="black" points="0,-42.1 186.41,-42.1"/>
<text text-anchor="start" x="8" y="-25.5" font-family="Times,serif" font-size="14.00">+ values() : VoteType[]</text>
<text text-anchor="start" x="8" y="-8.7" font-family="Times,serif" font-size="14.00"> + valueOf(String) : VoteType</text>
</g>
<!-- Vote&#45;&gt;VoteType -->
<g id="edge27" class="edge">
<title>Vote-&gt;VoteType</title>
<path fill="none" stroke="#595959" d="M93.2,-132.12C93.2,-132.12 93.2,-119.91 93.2,-119.91"/>
<polygon fill="#595959" stroke="#595959" points="93.2,-132.27 97.2,-138.27 93.2,-144.27 89.2,-138.27 93.2,-132.27"/>
<polygon fill="#595959" stroke="#595959" points="93.2,-109.91 97.7,-119.91 93.2,-113.69 93.2,-119.91 93.2,-119.91 93.2,-119.91 93.2,-113.69 88.7,-119.91 93.2,-109.91"/>
<text text-anchor="middle" x="119.64" y="-129.69" font-family="Times,serif" font-size="14.00">voteType</text>
<text text-anchor="middle" x="119.64" y="-112.89" font-family="Times,serif" font-size="14.00">1</text>
<text text-anchor="middle" x="89.7" y="-132.57" font-family="Times,serif" font-size="14.00">1</text>
</g>
</g>
</svg>